<svg width="20" height="20" viewBox="0 0 20 20" fill="none" xmlns="http://www.w3.org/2000/svg">
<path fill-rule="evenodd" clip-rule="evenodd" d="M1.80965 10.0001C1.80965 12.1723 2.67252 14.2554 4.20844 15.7913C5.74437 17.3273 7.82752 18.1901 9.99965 18.1901C12.1718 18.1901 14.2549 17.3273 15.7908 15.7913C17.3268 14.2554 18.1896 12.1723 18.1896 10.0001C18.1896 7.82801 17.3268 5.74485 15.7908 4.20893C14.2549 2.67301 12.1718 1.81014 9.99965 1.81014C7.82752 1.81014 5.74437 2.67301 4.20844 4.20893C2.67252 5.74485 1.80965 7.82801 1.80965 10.0001ZM19.3596 10.0001C19.3596 12.4826 18.3735 14.8633 16.6182 16.6187C14.8628 18.374 12.4821 19.3601 9.99965 19.3601C7.51722 19.3601 5.13647 18.374 3.38113 16.6187C1.62579 14.8633 0.639648 12.4826 0.639648 10.0001C0.639648 7.51771 1.62579 5.13696 3.38113 3.38162C5.13647 1.62628 7.51722 0.640137 9.99965 0.640137C12.4821 0.640137 14.8628 1.62628 16.6182 3.38162C18.3735 5.13696 19.3596 7.51771 19.3596 10.0001ZM10.5846 5.90514C10.5846 5.74998 10.523 5.60119 10.4133 5.49148C10.3036 5.38177 10.1548 5.32014 9.99965 5.32014C9.84449 5.32014 9.6957 5.38177 9.58599 5.49148C9.47628 5.60119 9.41465 5.74998 9.41465 5.90514V12.6829L6.90383 10.171C6.79398 10.0611 6.64499 9.9994 6.48965 9.9994C6.3343 9.9994 6.18531 10.0611 6.07547 10.171C5.96562 10.2808 5.90391 10.4298 5.90391 10.5851C5.90391 10.7405 5.96562 10.8895 6.07547 10.9993L9.58547 14.5093C9.63981 14.5638 9.70436 14.607 9.77543 14.6365C9.84651 14.666 9.9227 14.6812 9.99965 14.6812C10.0766 14.6812 10.1528 14.666 10.2239 14.6365C10.2949 14.607 10.3595 14.5638 10.4138 14.5093L13.9238 10.9993C14.0337 10.8895 14.0954 10.7405 14.0954 10.5851C14.0954 10.4298 14.0337 10.2808 13.9238 10.171C13.814 10.0611 13.665 9.9994 13.5096 9.9994C13.3543 9.9994 13.2053 10.0611 13.0955 10.171L10.5846 12.6829V5.90514Z" fill="#226DE5"/>
</svg>
