<svg width="111" height="48" viewBox="0 0 111 48" fill="none" xmlns="http://www.w3.org/2000/svg">
<g clip-path="url(#clip0)">
<path d="M108.197 40.9881H103.734V43.2366H108.197C108.55 43.2366 108.785 43.1866 108.902 43.0867C109.019 42.9867 109.087 42.8202 109.087 42.5537V41.6543C109.087 41.4045 109.019 41.2213 108.902 41.1214C108.785 41.0214 108.55 40.9881 108.197 40.9881ZM101.771 47.9999V39.5225H109.07C109.741 39.5225 110.244 39.6557 110.563 39.9055C110.865 40.172 111 40.5884 111 41.1713V43.0533C111 43.6196 110.849 44.036 110.563 44.3025C110.244 44.569 109.758 44.7022 109.07 44.7022H103.734V47.9999H101.771Z" fill="white"/>
<path d="M91.35 39.5225V46.401H97.0048V39.5225H99.0017V45.9846C99.0017 46.7508 98.8507 47.2837 98.5654 47.5669C98.2634 47.85 97.7096 47.9832 96.8874 47.9832H91.501C90.6788 47.9832 90.125 47.8333 89.8398 47.5669C89.5377 47.2837 89.3867 46.7674 89.3867 45.9846V39.5225H91.35Z" fill="white"/>
<path d="M76.0801 41.5211C76.0801 40.7549 76.2311 40.2386 76.4996 39.9555C76.8016 39.6724 77.3721 39.5225 78.1944 39.5225H84.4869C85.3091 39.5225 85.8796 39.6724 86.1481 39.9555C86.4502 40.2386 86.6012 40.7549 86.6012 41.5211V45.9846C86.6012 46.7508 86.4502 47.2837 86.1481 47.5669C85.8629 47.85 85.3091 47.9832 84.4869 47.9832H78.1944C77.3721 47.9832 76.8184 47.8333 76.4996 47.5669C76.2143 47.2837 76.0801 46.7508 76.0801 45.9846V41.5211ZM78.0601 46.401H84.6044V41.0381H78.0601V46.401Z" fill="white"/>
<path d="M69.5867 40.9881H65.1232V43.3531H69.5867C69.9391 43.3531 70.174 43.3032 70.2915 43.2032C70.409 43.1033 70.4761 42.9201 70.4761 42.6703V41.6543C70.4761 41.4045 70.409 41.2213 70.2915 41.1214C70.174 41.0214 69.9391 40.9881 69.5867 40.9881ZM63.1768 47.9999V39.5225H70.4761C71.1473 39.5225 71.6507 39.6557 71.9695 39.9055C72.2715 40.172 72.4058 40.5884 72.4058 41.1713V43.1533C72.4058 43.7196 72.2548 44.1359 71.9695 44.4024C71.6507 44.6689 71.1641 44.8021 70.4761 44.8021H69.3686L73.3119 47.9999H70.4593L67.0194 44.8021H65.14V47.9999H63.1768Z" fill="white"/>
<path d="M58.4613 41.0215H52.2527V46.3844H58.4613V44.5024H55.2228V43.0534H60.391V45.968C60.391 46.7342 60.24 47.2671 59.9547 47.5503C59.6527 47.8334 59.0822 47.9666 58.2599 47.9666H52.3701C51.5479 47.9666 50.9942 47.8167 50.6754 47.5503C50.3901 47.2671 50.2559 46.7342 50.2559 45.968V41.5045C50.2559 40.7383 50.4069 40.222 50.6754 39.9389C50.9774 39.6558 51.5479 39.5059 52.3701 39.5059H58.2599C59.0822 39.5059 59.6359 39.6391 59.9379 39.9222C60.24 40.1887 60.391 40.705 60.391 41.4379V41.6377L58.4613 41.9875V41.0215Z" fill="white"/>
<path d="M25.1532 25.2658V13.957L11.9473 0H19.8339L28.5595 9.69327L37.3355 0H44.2992L31.1269 13.8237V25.2658H25.1532Z" fill="white"/>
<path d="M50.2734 25.2658V0H71.6848H76.3328H76.5845V4.31367H76.3328H71.6848H56.18V9.94309H67.926V14.2568H56.18V20.5191H76.5678V25.2658H50.2734Z" fill="white"/>
<path d="M105.429 4.4136H88.7496V9.84316H104.64C107.107 9.84316 108.802 10.2595 109.725 11.109C110.564 11.975 111 13.5406 111 15.8057V19.2866C111 21.5684 110.581 23.1339 109.725 24C108.802 24.8328 107.107 25.2658 104.64 25.2658H88.9007C86.4172 25.2658 84.7392 24.8494 83.8666 24C82.9941 23.1672 82.541 21.585 82.541 19.2866V18.6037L87.7764 17.5212V20.5024H105.781V14.7398H89.8907C87.424 14.7398 85.7628 14.3234 84.907 13.474C84.0344 12.6412 83.5814 11.059 83.5814 8.77724V5.97918C83.5814 3.68078 84.0177 2.1152 84.907 1.28244C85.7628 0.433033 87.424 0 89.8907 0H104.338C106.738 0 108.399 0.399722 109.322 1.23248C110.211 2.04858 110.648 3.48092 110.648 5.52949V6.06246L105.412 7.29493V4.4136H105.429Z" fill="white"/>
<path fill-rule="evenodd" clip-rule="evenodd" d="M0 0H5.97369L19.1796 13.957V25.2658H13.2059V13.957L0 0Z" fill="white"/>
<path fill-rule="evenodd" clip-rule="evenodd" d="M13.2059 13.957V25.2658H0V0L13.2059 13.957Z" fill="white"/>
<path d="M50.273 30.0125H0V34.7591H50.273V30.0125Z" fill="white"/>
<path d="M111.017 30.0125H50.2734V34.7591H111.017V30.0125Z" fill="white"/>
</g>
<defs>
<clipPath id="clip0">
<rect width="111" height="48" fill="white"/>
</clipPath>
</defs>
</svg>
