<svg width="139" height="60" viewBox="0 0 139 60" fill="none" xmlns="http://www.w3.org/2000/svg">
<g clip-path="url(#clip0)">
<path d="M134.725 51.2354H129.167V54.0459H134.725C135.164 54.0459 135.456 53.9835 135.603 53.8586C135.749 53.7337 135.832 53.5255 135.832 53.1924V52.0681C135.832 51.7559 135.749 51.5268 135.603 51.4019C135.456 51.277 135.164 51.2354 134.725 51.2354ZM126.723 60.0001V49.4033H135.812C136.647 49.4033 137.274 49.5699 137.671 49.8822C138.047 50.2153 138.214 50.7357 138.214 51.4644V53.8169C138.214 54.5248 138.026 55.0452 137.671 55.3783C137.274 55.7114 136.668 55.878 135.812 55.878H129.167V60.0001H126.723Z" fill="#020102"/>
<path d="M113.747 49.4033V58.0015H120.789V49.4033H123.275V57.481C123.275 58.4387 123.087 59.1049 122.732 59.4588C122.356 59.8127 121.666 59.9793 120.642 59.9793H113.935C112.912 59.9793 112.222 59.7919 111.867 59.4588C111.491 59.1049 111.303 58.4595 111.303 57.481V49.4033H113.747Z" fill="#020102"/>
<path d="M94.7334 51.9016C94.7334 50.9439 94.9214 50.2985 95.2558 49.9446C95.6318 49.5907 96.3422 49.4033 97.3661 49.4033H105.201C106.225 49.4033 106.936 49.5907 107.27 49.9446C107.646 50.2985 107.834 50.9439 107.834 51.9016V57.481C107.834 58.4387 107.646 59.1049 107.27 59.4588C106.915 59.8127 106.225 59.9793 105.201 59.9793H97.3661C96.3422 59.9793 95.6527 59.7919 95.2558 59.4588C94.9006 59.1049 94.7334 58.4387 94.7334 57.481V51.9016ZM97.1989 58.0015H105.348V51.2978H97.1989V58.0015Z" fill="#020102"/>
<path d="M86.6476 51.2354H81.0897V54.1917H86.6476C87.0863 54.1917 87.3788 54.1292 87.5251 54.0043C87.6714 53.8794 87.7549 53.6504 87.7549 53.3381V52.0681C87.7549 51.7559 87.6714 51.5268 87.5251 51.4019C87.3788 51.277 87.0863 51.2354 86.6476 51.2354ZM78.666 60.0001V49.4033H87.7549C88.5907 49.4033 89.2175 49.5699 89.6145 49.8822C89.9906 50.2153 90.1578 50.7357 90.1578 51.4644V53.9418C90.1578 54.6497 89.9697 55.1702 89.6145 55.5033C89.2175 55.8364 88.6116 56.0029 87.7549 56.0029H86.3759L91.286 60.0001H87.734L83.4508 56.0029H81.1106V60.0001H78.666Z" fill="#020102"/>
<path d="M72.7953 51.2768H65.0645V57.9805H72.7953V55.628H68.7628V53.8167H75.1981V57.46C75.1981 58.4177 75.0101 59.0839 74.6549 59.4378C74.2788 59.7918 73.5684 59.9583 72.5446 59.9583H65.2108C64.187 59.9583 63.4975 59.7709 63.1005 59.4378C62.7453 59.0839 62.5781 58.4177 62.5781 57.46V51.8806C62.5781 50.9229 62.7662 50.2775 63.1005 49.9236C63.4766 49.5697 64.187 49.3823 65.2108 49.3823H72.5446C73.5684 49.3823 74.2579 49.5489 74.634 49.9028C75.0101 50.2359 75.1981 50.8813 75.1981 51.7973V52.0471L72.7953 52.4843V51.2768Z" fill="#020102"/>
<path d="M31.3196 31.5822V17.4462L14.876 0H24.6962L35.5611 12.1166L46.4887 0H55.1598L38.7579 17.2797V31.5822H31.3196Z" fill="#020102"/>
<path d="M62.5986 31.5822V0H89.2595H95.0471H95.3605V5.39209H95.0471H89.2595H69.9533V12.4289H84.5792V17.821H69.9533V25.6489H95.3396V31.5822H62.5986Z" fill="#020102"/>
<path d="M131.277 5.517H110.508V12.304H130.295C133.366 12.304 135.477 12.8244 136.626 13.8862C137.67 14.9688 138.214 16.9257 138.214 19.7571V24.1083C138.214 26.9604 137.691 28.9174 136.626 30C135.477 31.0409 133.366 31.5822 130.295 31.5822H110.696C107.604 31.5822 105.514 31.0618 104.428 30C103.341 28.9591 102.777 26.9813 102.777 24.1083V23.2547L109.296 21.9015V25.628H131.716V18.4247H111.929C108.858 18.4247 106.789 17.9042 105.723 16.8425C104.637 15.8015 104.073 13.8237 104.073 10.9715V7.47398C104.073 4.60097 104.616 2.644 105.723 1.60305C106.789 0.541291 108.858 0 111.929 0H129.919C132.907 0 134.975 0.499653 136.124 1.5406C137.232 2.56072 137.775 4.35114 137.775 6.91187V7.57807L131.256 9.11867V5.517H131.277Z" fill="#020102"/>
<path fill-rule="evenodd" clip-rule="evenodd" d="M0 0H7.43829L23.8819 17.4462V31.5822H16.4436V17.4462L0 0Z" fill="#2B579D"/>
<path fill-rule="evenodd" clip-rule="evenodd" d="M16.4436 17.4462V31.5822H0V0L16.4436 17.4462Z" fill="#020102"/>
<path d="M62.5986 37.5156H0V43.449H62.5986V37.5156Z" fill="#020102"/>
<path d="M138.235 37.5156H62.5986V43.449H138.235V37.5156Z" fill="#2B579D"/>
</g>
<defs>
<clipPath id="clip0">
<rect width="138.214" height="60" fill="white"/>
</clipPath>
</defs>
</svg>
