<svg width="83" height="36" viewBox="0 0 83 36" fill="none" xmlns="http://www.w3.org/2000/svg">
<g clip-path="url(#clip0)">
<path d="M80.9042 30.7411H77.5667V32.4274H80.9042C81.1677 32.4274 81.3434 32.3899 81.4312 32.315C81.519 32.24 81.5692 32.1151 81.5692 31.9153V31.2407C81.5692 31.0534 81.519 30.916 81.4312 30.841C81.3434 30.7661 81.1677 30.7411 80.9042 30.7411ZM76.0986 35.9999V29.6418H81.5567C82.0586 29.6418 82.435 29.7418 82.6734 29.9291C82.8992 30.129 82.9996 30.4413 82.9996 30.8785V32.29C82.9996 32.7147 82.8867 33.027 82.6734 33.2269C82.435 33.4267 82.0711 33.5267 81.5567 33.5267H77.5667V35.9999H76.0986Z" fill="white"/>
<path d="M68.3069 29.6418V34.8008H72.5353V29.6418H74.0284V34.4885C74.0284 35.0631 73.9155 35.4628 73.7022 35.6751C73.4764 35.8875 73.0623 35.9874 72.4475 35.9874H68.4198C67.805 35.9874 67.3909 35.875 67.1776 35.6751C66.9518 35.4628 66.8389 35.0756 66.8389 34.4885V29.6418H68.3069Z" fill="white"/>
<path d="M56.8887 31.1408C56.8887 30.5662 57.0016 30.179 57.2024 29.9666C57.4282 29.7543 57.8548 29.6418 58.4696 29.6418H63.1748C63.7897 29.6418 64.2163 29.7543 64.417 29.9666C64.6429 30.179 64.7558 30.5662 64.7558 31.1408V34.4885C64.7558 35.0631 64.6429 35.4628 64.417 35.6751C64.2037 35.8875 63.7897 35.9874 63.1748 35.9874H58.4696C57.8548 35.9874 57.4408 35.875 57.2024 35.6751C56.989 35.4628 56.8887 35.0631 56.8887 34.4885V31.1408ZM58.3693 34.8008H63.2627V30.7786H58.3693V34.8008Z" fill="white"/>
<path d="M52.0333 30.7411H48.6957V32.5149H52.0333C52.2968 32.5149 52.4724 32.4774 52.5603 32.4024C52.6481 32.3275 52.6983 32.1901 52.6983 32.0027V31.2407C52.6983 31.0534 52.6481 30.916 52.5603 30.841C52.4724 30.7661 52.2968 30.7411 52.0333 30.7411ZM47.2402 35.9999V29.6418H52.6983C53.2002 29.6418 53.5766 29.7418 53.815 29.9291C54.0408 30.129 54.1412 30.4413 54.1412 30.8785V32.365C54.1412 32.7897 54.0283 33.1019 53.815 33.3018C53.5766 33.5017 53.2127 33.6016 52.6983 33.6016H51.8702L54.8188 35.9999H52.6857L50.1136 33.6016H48.7083V35.9999H47.2402Z" fill="white"/>
<path d="M43.7147 30.7661H39.0722V34.7883H43.7147V33.3768H41.2931V32.29H45.1576V34.476C45.1576 35.0506 45.0447 35.4503 44.8314 35.6627C44.6056 35.8751 44.179 35.975 43.5641 35.975H39.1601C38.5452 35.975 38.1312 35.8626 37.8928 35.6627C37.6795 35.4503 37.5791 35.0506 37.5791 34.476V31.1284C37.5791 30.5538 37.692 30.1665 37.8928 29.9542C38.1186 29.7418 38.5452 29.6294 39.1601 29.6294H43.5641C44.179 29.6294 44.593 29.7293 44.8189 29.9417C45.0447 30.1415 45.1576 30.5288 45.1576 31.0784V31.2283L43.7147 31.4906V30.7661Z" fill="white"/>
<path d="M18.8083 18.9493V10.4677L8.93359 0H14.8308L21.3554 7.26995L27.9176 0H33.1247L23.2751 10.3678V18.9493H18.8083Z" fill="white"/>
<path d="M37.5918 18.9493V0H53.6021H57.0777H57.2659V3.23525H57.0777H53.6021H42.0084V7.45732H50.7915V10.6926H42.0084V15.3893H57.2533V18.9493H37.5918Z" fill="white"/>
<path d="M78.8342 3.3102H66.3622V7.38237H78.2445C80.0889 7.38237 81.3562 7.69466 82.0463 8.33171C82.6736 8.98126 82.9999 10.1554 82.9999 11.8543V14.465C82.9999 16.1763 82.6862 17.3505 82.0463 18C81.3562 18.6246 80.0889 18.9493 78.2445 18.9493H66.4751C64.6181 18.9493 63.3634 18.6371 62.711 18C62.0585 17.3754 61.7197 16.1888 61.7197 14.465V13.9528L65.6345 13.1409V15.3768H79.0977V11.0548H67.2154C65.371 11.0548 64.1288 10.7425 63.4889 10.1055C62.8364 9.48092 62.4977 8.29424 62.4977 6.58293V4.48439C62.4977 2.76058 62.8239 1.5864 63.4889 0.961832C64.1288 0.324774 65.371 0 67.2154 0H78.0186C79.8129 0 81.055 0.299792 81.7451 0.924358C82.4101 1.53643 82.7364 2.61069 82.7364 4.14712V4.54684L78.8216 5.4712V3.3102H78.8342Z" fill="white"/>
<path fill-rule="evenodd" clip-rule="evenodd" d="M0 0H4.46682L14.3415 10.4677V18.9493H9.87467V10.4677L0 0Z" fill="white"/>
<path fill-rule="evenodd" clip-rule="evenodd" d="M9.87468 10.4677V18.9493H0V0L9.87468 10.4677Z" fill="white"/>
<path d="M37.5915 22.5095H0V26.0695H37.5915V22.5095Z" fill="white"/>
<path d="M83.0128 22.5095H37.5918V26.0695H83.0128V22.5095Z" fill="white"/>
</g>
<defs>
<clipPath id="clip0">
<rect width="83" height="36" fill="white"/>
</clipPath>
</defs>
</svg>
