<svg width="36" height="36" viewBox="0 0 36 36" fill="none" xmlns="http://www.w3.org/2000/svg">
<path fill-rule="evenodd" clip-rule="evenodd" d="M17.6066 33.4097C21.6551 33.4097 25.5377 31.7964 28.4005 28.9247C31.2632 26.0531 32.8714 22.1583 32.8714 18.0972C32.8714 14.036 31.2632 10.1412 28.4005 7.2696C25.5377 4.39795 21.6551 2.78467 17.6066 2.78467C13.5581 2.78467 9.67548 4.39795 6.81277 7.2696C3.95007 10.1413 2.34182 14.036 2.34182 18.0972C2.34182 22.1583 3.95007 26.0531 6.81277 28.9247C9.67548 31.7964 13.5581 33.4097 17.6066 33.4097ZM17.6066 0.59717C22.2334 0.59717 26.6708 2.44091 29.9424 5.7228C33.2141 9.00469 35.0521 13.4559 35.0521 18.0972C35.0521 22.7385 33.2141 27.1896 29.9424 30.4715C26.6708 33.7534 22.2334 35.5972 17.6066 35.5972C12.9798 35.5972 8.54246 33.7534 5.2708 30.4715C1.99913 27.1897 0.161133 22.7385 0.161132 18.0972C0.161132 13.4559 1.99913 9.00469 5.2708 5.7228C8.54246 2.44091 12.9798 0.597171 17.6066 0.59717ZM9.97422 17.0034C9.68504 17.0034 9.40771 17.1187 9.20323 17.3238C8.99875 17.5289 8.88387 17.8071 8.88387 18.0972C8.88387 18.3873 8.99875 18.6654 9.20323 18.8706C9.40771 19.0757 9.68504 19.1909 9.97422 19.1909L22.6069 19.1909L17.925 23.8853C17.7203 24.0907 17.6052 24.3692 17.6052 24.6597C17.6052 24.9501 17.7203 25.2287 17.925 25.434C18.1297 25.6394 18.4074 25.7548 18.697 25.7548C18.9865 25.7548 19.2642 25.6394 19.4689 25.434L26.011 18.8715C26.1125 18.7699 26.1931 18.6492 26.248 18.5164C26.303 18.3835 26.3313 18.241 26.3313 18.0972C26.3313 17.9533 26.303 17.8108 26.248 17.678C26.1931 17.5451 26.1125 17.4244 26.011 17.3228L19.4689 10.7603C19.2642 10.5549 18.9865 10.4395 18.697 10.4395C18.4074 10.4395 18.1297 10.5549 17.925 10.7603C17.7203 10.9657 17.6052 11.2442 17.6052 11.5347C17.6052 11.8251 17.7203 12.1037 17.925 12.309L22.6069 17.0034L9.97422 17.0034Z" fill="#D1D8E3" fill-opacity="0.36"/>
</svg>
