<svg width="36" height="35" viewBox="0 0 36 35" fill="none" xmlns="http://www.w3.org/2000/svg">
<path fill-rule="evenodd" clip-rule="evenodd" d="M18.4168 2.1875C14.3683 2.1875 10.4857 3.80077 7.62297 6.67242C4.76027 9.54407 3.15202 13.4389 3.15202 17.5C3.15202 21.5611 4.76027 25.4559 7.62297 28.3276C10.4857 31.1992 14.3683 32.8125 18.4168 32.8125C22.4653 32.8125 26.348 31.1992 29.2107 28.3276C32.0734 25.4559 33.6816 21.5611 33.6816 17.5C33.6816 13.4389 32.0734 9.54408 29.2107 6.67243C26.348 3.80078 22.4653 2.1875 18.4168 2.1875ZM18.4168 35C13.79 35 9.35266 33.1563 6.08099 29.8744C2.80933 26.5925 0.971328 22.1413 0.971328 17.5C0.971328 12.8587 2.80933 8.40751 6.08099 5.12563C9.35266 1.84374 13.79 -2.14573e-06 18.4168 -1.69594e-06C23.0436 -1.24615e-06 27.481 1.84374 30.7526 5.12563C34.0243 8.40752 35.8623 12.8587 35.8623 17.5C35.8623 22.1413 34.0243 26.5925 30.7526 29.8744C27.481 33.1563 23.0436 35 18.4168 35ZM26.0492 18.5937C26.3384 18.5937 26.6157 18.4785 26.8202 18.2734C27.0247 18.0683 27.1396 17.7901 27.1396 17.5C27.1396 17.2099 27.0247 16.9317 26.8202 16.7266C26.6157 16.5215 26.3384 16.4062 26.0492 16.4062L13.4165 16.4062L18.0984 11.7119C18.3032 11.5065 18.4182 11.2279 18.4182 10.9375C18.4182 10.6471 18.3032 10.3685 18.0984 10.1631C17.8937 9.95774 17.616 9.84237 17.3265 9.84237C17.0369 9.84237 16.7592 9.95774 16.5545 10.1631L10.0125 16.7256C9.91091 16.8272 9.83035 16.9479 9.77538 17.0808C9.72042 17.2137 9.69212 17.3561 9.69212 17.5C9.69212 17.6439 9.72042 17.7863 9.77538 17.9192C9.83035 18.0521 9.91091 18.1728 10.0125 18.2744L16.5545 24.8369C16.7592 25.0422 17.0369 25.1576 17.3265 25.1576C17.616 25.1576 17.8937 25.0422 18.0984 24.8369C18.3032 24.6315 18.4182 24.3529 18.4182 24.0625C18.4182 23.772 18.3032 23.4935 18.0984 23.2881L13.4165 18.5937L26.0492 18.5937Z" fill="#D1D8E3" fill-opacity="0.36"/>
</svg>
