<svg width="16" height="16" viewBox="0 0 16 16" fill="none" xmlns="http://www.w3.org/2000/svg">
<path d="M11.7256 10.4648C11.5862 10.325 11.4206 10.214 11.2383 10.1383C11.056 10.0626 10.8605 10.0236 10.6631 10.0236C10.4656 10.0236 10.2702 10.0626 10.0878 10.1383C9.90551 10.214 9.73993 10.325 9.60057 10.4648L8.87557 11.1898C8.05927 10.6718 7.30298 10.0647 6.62057 9.37983C5.93714 8.69612 5.33022 7.93999 4.81057 7.12483L5.53557 6.39983C5.67541 6.26047 5.78636 6.09488 5.86207 5.91256C5.93778 5.73023 5.97675 5.53475 5.97675 5.33733C5.97675 5.13991 5.93778 4.94443 5.86207 4.7621C5.78636 4.57977 5.67541 4.41418 5.53557 4.27483L4.12057 2.86483C3.98318 2.72452 3.81899 2.61327 3.63775 2.53769C3.45652 2.4621 3.26193 2.42372 3.06557 2.42483C2.86781 2.42434 2.67191 2.46297 2.48913 2.53848C2.30636 2.61399 2.14032 2.7249 2.00057 2.86483L1.32057 3.53983C0.996455 3.88831 0.754555 4.305 0.612652 4.75926C0.470749 5.21353 0.43245 5.69382 0.50057 6.16483C0.66057 8.03983 1.89057 10.2948 3.78557 12.1948C5.68057 14.0948 7.96057 15.3198 9.83557 15.4998C9.97547 15.5073 10.1157 15.5073 10.2556 15.4998C10.6592 15.5168 11.0621 15.453 11.4408 15.3122C11.8194 15.1714 12.1661 14.9564 12.4606 14.6798L13.1356 13.9998C13.2755 13.8601 13.3864 13.694 13.4619 13.5113C13.5374 13.3285 13.5761 13.1326 13.5756 12.9348C13.5767 12.7385 13.5383 12.5439 13.4627 12.3626C13.3871 12.1814 13.2759 12.0172 13.1356 11.8798L11.7256 10.4648ZM12.4306 13.2948L11.7506 13.9698C11.4991 14.1794 11.2056 14.3325 10.8899 14.4187C10.5742 14.505 10.2436 14.5224 9.92057 14.4698C8.29557 14.3298 6.22557 13.1798 4.51557 11.4698C2.80557 9.75983 1.65557 7.70483 1.50057 6.07983C1.44665 5.75678 1.46343 5.42589 1.54975 5.10996C1.63607 4.79403 1.78988 4.50057 2.00057 4.24983L2.70557 3.56983C2.75229 3.52349 2.8077 3.48682 2.86862 3.46194C2.92954 3.43706 2.99477 3.42445 3.06057 3.42483C3.12637 3.42445 3.1916 3.43706 3.25252 3.46194C3.31344 3.48682 3.36885 3.52349 3.41557 3.56983L4.83057 4.99983C4.92369 5.09351 4.97597 5.22024 4.97597 5.35233C4.97597 5.48442 4.92369 5.61115 4.83057 5.70483L3.83057 6.70483C3.75232 6.78269 3.70204 6.88427 3.68756 6.99371C3.67309 7.10315 3.69525 7.2143 3.75057 7.30983C4.34927 8.32905 5.07694 9.26679 5.91557 10.0998C6.74861 10.9385 7.68634 11.6661 8.70557 12.2648C8.8011 12.3202 8.91225 12.3423 9.02169 12.3278C9.13113 12.3134 9.2327 12.2631 9.31057 12.1848L10.3106 11.1848C10.4043 11.0917 10.531 11.0394 10.6631 11.0394C10.7952 11.0394 10.9219 11.0917 11.0156 11.1848L12.4306 12.5998C12.4769 12.6465 12.5136 12.702 12.5385 12.7629C12.5633 12.8238 12.5759 12.889 12.5756 12.9548C12.5724 13.0825 12.5206 13.2042 12.4306 13.2948Z" fill="#4183EE"/>
<path d="M13.3 2.69501C12.6051 1.9975 11.7791 1.44443 10.8694 1.06771C9.95978 0.690978 8.98456 0.498039 8 0.500015C7.86739 0.500015 7.74021 0.552693 7.64645 0.646462C7.55268 0.74023 7.5 0.867407 7.5 1.00002C7.5 1.13262 7.55268 1.2598 7.64645 1.35357C7.74021 1.44734 7.86739 1.50002 8 1.50002C8.85824 1.49998 9.70799 1.66992 10.5002 2.00001C11.2924 2.3301 12.0114 2.81381 12.6157 3.42323C13.2201 4.03264 13.6977 4.7557 14.0211 5.55068C14.3445 6.34565 14.5073 7.19681 14.5 8.05502C14.5 8.18762 14.5527 8.3148 14.6464 8.40857C14.7402 8.50234 14.8674 8.55502 15 8.55502C15.1326 8.55502 15.2598 8.50234 15.3536 8.40857C15.4473 8.3148 15.5 8.18762 15.5 8.05502C15.5096 7.05998 15.3199 6.0731 14.942 5.15255C14.5642 4.23199 14.0059 3.3964 13.3 2.69501Z" fill="#4183EE"/>
<path d="M10.4548 5.55491C10.7386 5.83695 10.9631 6.17291 11.1151 6.543C11.267 6.91309 11.3435 7.30984 11.3398 7.70991C11.3398 7.84252 11.3925 7.9697 11.4863 8.06347C11.58 8.15723 11.7072 8.20991 11.8398 8.20991C11.9724 8.20991 12.0996 8.15723 12.1934 8.06347C12.2872 7.9697 12.3398 7.84252 12.3398 7.70991C12.3464 7.18043 12.2479 6.65491 12.0498 6.16382C11.8518 5.67273 11.5582 5.22585 11.1861 4.84911C10.814 4.47236 10.3708 4.17324 9.88221 3.96911C9.39362 3.76497 8.86936 3.65987 8.33984 3.65991C8.20723 3.65991 8.08006 3.71259 7.98629 3.80636C7.89252 3.90013 7.83984 4.0273 7.83984 4.15991C7.83984 4.29252 7.89252 4.4197 7.98629 4.51347C8.08006 4.60723 8.20723 4.65991 8.33984 4.65991C8.73388 4.66288 9.12348 4.74345 9.48637 4.89702C9.84927 5.05058 10.1784 5.27414 10.4548 5.55491Z" fill="#4183EE"/>
</svg>
