<svg width="58" height="58" viewBox="0 0 58 58" fill="none" xmlns="http://www.w3.org/2000/svg">
<path fill-rule="evenodd" clip-rule="evenodd" d="M55.25 28.2313V14.9375C55.2478 14.1923 54.9507 13.4782 54.4238 12.9512C53.8968 12.4243 53.1827 12.1272 52.4375 12.125H40.25V5.5625C40.25 4.3193 39.7561 3.12701 38.8771 2.24794C37.998 1.36886 36.8057 0.875 35.5625 0.875H5.5625C4.3193 0.875 3.12701 1.36886 2.24794 2.24794C1.36886 3.12701 0.875 4.3193 0.875 5.5625V52.4375C0.875 53.6807 1.36886 54.873 2.24794 55.7521C3.12701 56.6311 4.3193 57.125 5.5625 57.125H35.5625C36.8057 57.125 37.998 56.6311 38.8771 55.7521C39.7561 54.873 40.25 53.6807 40.25 52.4375V45.875H52.4375C53.1827 45.8728 53.8968 45.5757 54.4238 45.0488C54.9507 44.5218 55.2478 43.8077 55.25 43.0625V37.2687C55.7963 37.0742 56.2694 36.716 56.6049 36.2429C56.9404 35.7699 57.122 35.2049 57.125 34.625V30.875C57.122 30.2951 56.9404 29.7301 56.6049 29.2571C56.2694 28.784 55.7963 28.4258 55.25 28.2313ZM52.4375 14C52.6861 14 52.9246 14.0988 53.1004 14.2746C53.2762 14.4504 53.375 14.6889 53.375 14.9375V19.625H13.0625C12.3166 19.625 11.6012 19.3287 11.0738 18.8012C10.5463 18.2738 10.25 17.5584 10.25 16.8125C10.25 16.0666 10.5463 15.3512 11.0738 14.8238C11.6012 14.2963 12.3166 14 13.0625 14H52.4375ZM13.0625 45.875H35.5625V51.5C35.5625 51.7486 35.4637 51.9871 35.2879 52.1629C35.1121 52.3387 34.8736 52.4375 34.625 52.4375H6.5C6.25136 52.4375 6.0129 52.3387 5.83709 52.1629C5.66127 51.9871 5.5625 51.7486 5.5625 51.5V6.5C5.5625 6.25136 5.66127 6.0129 5.83709 5.83709C6.0129 5.66127 6.25136 5.5625 6.5 5.5625H13.9344C14.0887 5.56395 14.2402 5.60316 14.3759 5.6767C14.5115 5.75024 14.6271 5.85588 14.7125 5.98438L15.4812 7.11875C15.7348 7.50609 16.0812 7.82391 16.4889 8.04331C16.8966 8.2627 17.3527 8.37672 17.8156 8.375H23.3094C23.7713 8.37656 24.2263 8.26347 24.6338 8.04585C25.0412 7.82823 25.3882 7.5129 25.6437 7.12813L26.4125 5.975C26.4999 5.84914 26.6161 5.74602 26.7515 5.67426C26.8868 5.60249 27.0374 5.56417 27.1906 5.5625H34.625C34.8736 5.5625 35.1121 5.66127 35.2879 5.83709C35.4637 6.0129 35.5625 6.25136 35.5625 6.5V12.125H13.0625C11.8193 12.125 10.627 12.6189 9.74794 13.4979C8.86886 14.377 8.375 15.5693 8.375 16.8125V41.1875C8.375 42.4307 8.86886 43.623 9.74794 44.5021C10.627 45.3811 11.8193 45.875 13.0625 45.875ZM38.375 52.4375C38.3728 53.1827 38.0757 53.8968 37.5488 54.4238C37.0218 54.9507 36.3077 55.2478 35.5625 55.25H5.5625C4.81726 55.2478 4.10319 54.9507 3.57622 54.4238C3.04926 53.8968 2.75223 53.1827 2.75 52.4375V5.5625C2.75223 4.81726 3.04926 4.10319 3.57622 3.57622C4.10319 3.04926 4.81726 2.75223 5.5625 2.75H35.5625C36.3077 2.75223 37.0218 3.04926 37.5488 3.57622C38.0757 4.10319 38.3728 4.81726 38.375 5.5625V12.125H37.4375V6.5C37.4353 5.75476 37.1382 5.04069 36.6113 4.51372C36.0843 3.98676 35.3702 3.68973 34.625 3.6875H27.1906C26.7287 3.68594 26.2737 3.79903 25.8662 4.01665C25.4588 4.23427 25.1118 4.5496 24.8563 4.93437L24.0875 6.0875C24.0001 6.21336 23.8839 6.31648 23.7485 6.38824C23.6132 6.46001 23.4626 6.49833 23.3094 6.5H17.8156C17.6613 6.49855 17.5098 6.45934 17.3741 6.3858C17.2385 6.31226 17.1229 6.20662 17.0375 6.07812L16.2688 4.94375C16.0152 4.55641 15.6688 4.23859 15.2611 4.01919C14.8534 3.7998 14.3973 3.68578 13.9344 3.6875H6.5C5.75476 3.68973 5.04069 3.98676 4.51372 4.51372C3.98676 5.04069 3.68973 5.75476 3.6875 6.5V51.5C3.68973 52.2452 3.98676 52.9593 4.51372 53.4863C5.04069 54.0132 5.75476 54.3103 6.5 54.3125H34.625C35.3702 54.3103 36.0843 54.0132 36.6113 53.4863C37.1382 52.9593 37.4353 52.2452 37.4375 51.5V45.875H38.375V52.4375ZM53.375 43.0625C53.375 43.3111 53.2762 43.5496 53.1004 43.7254C52.9246 43.9012 52.6861 44 52.4375 44H13.0625C12.3173 43.9978 11.6032 43.7007 11.0762 43.1738C10.5493 42.6468 10.2522 41.9327 10.25 41.1875V20.5344C11.0553 21.1577 12.0442 21.4972 13.0625 21.5H53.375V28.0625H45.875C45.1298 28.0647 44.4157 28.3618 43.8887 28.8887C43.3618 29.4157 43.0647 30.1298 43.0625 30.875V34.625C43.0647 35.3702 43.3618 36.0843 43.8887 36.6113C44.4157 37.1382 45.1298 37.4353 45.875 37.4375H53.375V43.0625ZM55.25 34.625C55.25 34.8736 55.1512 35.1121 54.9754 35.2879C54.7996 35.4637 54.5611 35.5625 54.3125 35.5625H45.875C45.6264 35.5625 45.3879 35.4637 45.2121 35.2879C45.0363 35.1121 44.9375 34.8736 44.9375 34.625V30.875C44.9375 30.6264 45.0363 30.3879 45.2121 30.2121C45.3879 30.0363 45.6264 29.9375 45.875 29.9375H54.3125C54.5611 29.9375 54.7996 30.0363 54.9754 30.2121C55.1512 30.3879 55.25 30.6264 55.25 30.875V34.625ZM19.625 5.5625H21.5C21.7486 5.5625 21.9871 5.46373 22.1629 5.28791C22.3387 5.1121 22.4375 4.87364 22.4375 4.625C22.4375 4.37636 22.3387 4.1379 22.1629 3.96209C21.9871 3.78627 21.7486 3.6875 21.5 3.6875H19.625C19.3764 3.6875 19.1379 3.78627 18.9621 3.96209C18.7863 4.1379 18.6875 4.37636 18.6875 4.625C18.6875 4.87364 18.7863 5.1121 18.9621 5.28791C19.1379 5.46373 19.3764 5.5625 19.625 5.5625ZM12.3996 17.4754C12.2238 17.2996 12.125 17.0611 12.125 16.8125C12.125 16.5639 12.2238 16.3254 12.3996 16.1496C12.5754 15.9738 12.8139 15.875 13.0625 15.875H50.5625C50.8111 15.875 51.0496 15.9738 51.2254 16.1496C51.4012 16.3254 51.5 16.5639 51.5 16.8125C51.5 17.0611 51.4012 17.2996 51.2254 17.4754C51.0496 17.6512 50.8111 17.75 50.5625 17.75H13.0625C12.8139 17.75 12.5754 17.6512 12.3996 17.4754ZM47.75 31.8125H46.8125C46.5639 31.8125 46.3254 31.9113 46.1496 32.0871C45.9738 32.2629 45.875 32.5014 45.875 32.75C45.875 32.9986 45.9738 33.2371 46.1496 33.4129C46.3254 33.5887 46.5639 33.6875 46.8125 33.6875H47.75C47.9986 33.6875 48.2371 33.5887 48.4129 33.4129C48.5887 33.2371 48.6875 32.9986 48.6875 32.75C48.6875 32.5014 48.5887 32.2629 48.4129 32.0871C48.2371 31.9113 47.9986 31.8125 47.75 31.8125ZM14.9375 40.25H16.8125C17.0611 40.25 17.2996 40.3488 17.4754 40.5246C17.6512 40.7004 17.75 40.9389 17.75 41.1875C17.75 41.4361 17.6512 41.6746 17.4754 41.8504C17.2996 42.0262 17.0611 42.125 16.8125 42.125H14.9375C14.1916 42.125 13.4762 41.8287 12.9488 41.3012C12.4213 40.7738 12.125 40.0584 12.125 39.3125V37.4375C12.125 37.1889 12.2238 36.9504 12.3996 36.7746C12.5754 36.5988 12.8139 36.5 13.0625 36.5C13.3111 36.5 13.5496 36.5988 13.7254 36.7746C13.9012 36.9504 14 37.1889 14 37.4375V39.3125C14 39.5611 14.0988 39.7996 14.2746 39.9754C14.4504 40.1512 14.6889 40.25 14.9375 40.25Z" fill="url(#paint0_linear)"/>
<defs>
<linearGradient id="paint0_linear" x1="0.875" y1="0.875" x2="63.9524" y2="11.6266" gradientUnits="userSpaceOnUse">
<stop stop-color="#1E6AE4"/>
<stop offset="1" stop-color="#4284EE"/>
</linearGradient>
</defs>
</svg>
