<svg width="60" height="60" viewBox="0 0 60 60" fill="none" xmlns="http://www.w3.org/2000/svg">
<path fill-rule="evenodd" clip-rule="evenodd" d="M59.0002 0C59.4045 0.000488281 59.7687 0.244141 59.923 0.618164C59.9733 0.739258 59.9997 0.868652 60.0002 1V9C60.0002 9.55225 59.5524 10 59.0002 10C58.4479 10 58.0002 9.55225 58.0002 9V3.41406L42.7072 18.707C42.3166 19.0972 41.6838 19.0972 41.2931 18.707L38.0002 15.4141L27.7072 25.707C27.3166 26.0972 26.6838 26.0972 26.2931 25.707L23.0002 22.4141L6.70719 38.707C6.31657 39.0972 5.68376 39.0972 5.29313 38.707L0.293131 33.707C-0.0857754 33.3145 -0.0804043 32.6909 0.305338 32.3052C0.69108 31.9194 1.31462 31.9141 1.70719 32.293L6.00016 36.5859L22.2931 20.293C22.6838 19.9028 23.3166 19.9028 23.7072 20.293L27.0002 23.5859L37.2931 13.293C37.6838 12.9028 38.3166 12.9028 38.7072 13.293L42.0002 16.5859L56.5861 2H51.0002C50.4479 2 50.0002 1.55225 50.0002 1C50.0002 0.447754 50.4479 0 51.0002 0H59.0002ZM54.625 11.2192C54.2271 10.9003 53.6533 10.9326 53.293 11.2929L48.293 16.2929C48.1055 16.4804 48 16.7348 48 17V59C48 59.5522 48.4478 60 49 60H59C59.5522 60 60 59.5522 60 59V16C60 15.6962 59.8623 15.4086 59.625 15.2192L54.625 11.2192ZM58 58H50V17.414L54.0742 13.3398L58 16.4799V58ZM37.293 19.293C37.6533 18.9327 38.2271 18.9004 38.625 19.2193L43.625 23.2193C43.8623 23.4087 44 23.6963 44 24.0001V59.0001C44 59.5523 43.5522 60.0001 43 60.0001H33C32.4478 60.0001 32 59.5523 32 59.0001V25.0001C32 24.7349 32.1055 24.4805 32.293 24.293L37.293 19.293ZM34 58.0001H42V24.48L38.0742 21.3399L34 25.4141V58.0001ZM22.625 27.2193C22.2271 26.9004 21.6533 26.9327 21.293 27.293L16.293 32.293C16.1055 32.4805 16 32.7349 16 33.0001V59.0001C16 59.5523 16.4478 60.0001 17 60.0001H27C27.5522 60.0001 28 59.5523 28 59.0001V32.0001C28 31.6963 27.8623 31.4087 27.625 31.2193L22.625 27.2193ZM26 58.0001H18V33.4141L22.0742 29.3399L26 32.48V58.0001ZM11.3828 38.0761C11.0093 37.9194 10.5781 38.0053 10.293 38.2929L6 42.5859L1.70703 38.2929C1.4209 38.0073 0.990723 37.9214 0.617188 38.0761C0.243652 38.2309 0 38.5957 0 39V58.9999C0 59.5522 0.447754 59.9999 1 59.9999H11C11.5522 59.9999 12 59.5522 12 58.9999V39C12 38.5957 11.7563 38.2309 11.3828 38.0761ZM2 58V41.414L5.29297 44.707C5.68359 45.0971 6.31641 45.0971 6.70703 44.707L10 41.414V58H2Z" fill="url(#paint0_linear)"/>
<defs>
<linearGradient id="paint0_linear" x1="3.08904e-08" y1="2.79009e-08" x2="67.2827" y2="11.4685" gradientUnits="userSpaceOnUse">
<stop stop-color="#1E6AE4"/>
<stop offset="1" stop-color="#4284EE"/>
</linearGradient>
</defs>
</svg>
