<svg width="42" height="42" viewBox="0 0 42 42" fill="none" xmlns="http://www.w3.org/2000/svg">
<g clip-path="url(#clip0)">
<path fill-rule="evenodd" clip-rule="evenodd" d="M21 2.625C16.1266 2.625 11.4529 4.56093 8.00691 8.00691C4.56093 11.4529 2.625 16.1266 2.625 21C2.625 25.8733 4.56093 30.5471 8.00691 33.9931C11.4529 37.4391 16.1266 39.375 21 39.375C25.8734 39.375 30.5471 37.4391 33.9931 33.9931C37.4391 30.5471 39.375 25.8733 39.375 21C39.375 16.1266 37.4391 11.4529 33.9931 8.00691C30.5471 4.56093 25.8734 2.625 21 2.625ZM21 42C15.4305 42 10.089 39.7875 6.15076 35.8492C2.21249 31.911 -1.16139e-06 26.5695 -9.17939e-07 21C-6.74486e-07 15.4304 2.21249 10.089 6.15076 6.15076C10.089 2.21249 15.4305 -1.16139e-06 21 -9.17939e-07C26.5695 -6.74487e-07 31.911 2.21249 35.8492 6.15076C39.7875 10.089 42 15.4305 42 21C42 26.5695 39.7875 31.911 35.8492 35.8492C31.911 39.7875 26.5695 42 21 42ZM30.1875 22.3125C30.5356 22.3125 30.8694 22.1742 31.1156 21.9281C31.3617 21.6819 31.5 21.3481 31.5 21C31.5 20.6519 31.3617 20.3181 31.1156 20.0719C30.8694 19.8258 30.5356 19.6875 30.1875 19.6875L14.9809 19.6875L20.6168 14.0542C20.8632 13.8078 21.0017 13.4735 21.0017 13.125C21.0017 12.7765 20.8632 12.4422 20.6168 12.1957C20.3703 11.9493 20.036 11.8108 19.6875 11.8108C19.339 11.8108 19.0047 11.9493 18.7582 12.1957L10.8832 20.0707C10.761 20.1927 10.664 20.3375 10.5979 20.497C10.5317 20.6564 10.4977 20.8274 10.4977 21C10.4977 21.1726 10.5317 21.3436 10.5979 21.503C10.664 21.6625 10.761 21.8073 10.8832 21.9292L18.7582 29.8042C19.0047 30.0507 19.339 30.1892 19.6875 30.1892C20.036 30.1892 20.3703 30.0507 20.6167 29.8042C20.8632 29.5578 21.0017 29.2235 21.0017 28.875C21.0017 28.5265 20.8632 28.1922 20.6167 27.9457L14.9809 22.3125L30.1875 22.3125Z" fill="white" fill-opacity="0.36"/>
</g>
<defs>
<clipPath id="clip0">
<rect width="42" height="42" fill="white" transform="translate(42) rotate(90)"/>
</clipPath>
</defs>
</svg>
