<svg width="42" height="42" viewBox="0 0 42 42" fill="none" xmlns="http://www.w3.org/2000/svg">
<g clip-path="url(#clip0)">
<path fill-rule="evenodd" clip-rule="evenodd" d="M21 39.375C25.8734 39.375 30.5471 37.4391 33.9931 33.9931C37.4391 30.5471 39.375 25.8734 39.375 21C39.375 16.1267 37.4391 11.4529 33.9931 8.00692C30.5471 4.56094 25.8734 2.62501 21 2.62501C16.1266 2.62501 11.4529 4.56094 8.00691 8.00692C4.56093 11.4529 2.625 16.1267 2.625 21C2.625 25.8734 4.56093 30.5471 8.00691 33.9931C11.4529 37.4391 16.1266 39.375 21 39.375ZM21 6.71146e-06C26.5695 6.468e-06 31.911 2.2125 35.8492 6.15076C39.7875 10.089 42 15.4305 42 21C42 26.5695 39.7875 31.911 35.8492 35.8492C31.911 39.7875 26.5695 42 21 42C15.4305 42 10.089 39.7875 6.15076 35.8492C2.21249 31.911 -6.74486e-07 26.5695 -9.17939e-07 21C-1.16139e-06 15.4305 2.21249 10.089 6.15076 6.15076C10.089 2.2125 15.4305 6.95491e-06 21 6.71146e-06ZM11.8125 19.6875C11.4644 19.6875 11.1306 19.8258 10.8844 20.0719C10.6383 20.3181 10.5 20.6519 10.5 21C10.5 21.3481 10.6383 21.6819 10.8844 21.9281C11.1306 22.1742 11.4644 22.3125 11.8125 22.3125L27.0191 22.3125L21.3832 27.9458C21.1368 28.1922 20.9983 28.5265 20.9983 28.875C20.9983 29.2235 21.1368 29.5578 21.3832 29.8043C21.6297 30.0507 21.964 30.1892 22.3125 30.1892C22.661 30.1892 22.9953 30.0507 23.2418 29.8043L31.1167 21.9293C31.239 21.8073 31.336 21.6625 31.4021 21.503C31.4683 21.3436 31.5023 21.1726 31.5023 21C31.5023 20.8274 31.4683 20.6564 31.4021 20.497C31.336 20.3375 31.239 20.1927 31.1167 20.0708L23.2417 12.1958C22.9953 11.9493 22.661 11.8108 22.3125 11.8108C21.964 11.8108 21.6297 11.9493 21.3832 12.1958C21.1368 12.4422 20.9983 12.7765 20.9983 13.125C20.9983 13.4735 21.1368 13.8078 21.3832 14.0543L27.0191 19.6875L11.8125 19.6875Z" fill="white" fill-opacity="0.36"/>
</g>
<defs>
<clipPath id="clip0">
<rect width="42" height="42" fill="white" transform="translate(0 42) rotate(-90)"/>
</clipPath>
</defs>
</svg>
