<svg width="61" height="60" viewBox="0 0 61 60" fill="none" xmlns="http://www.w3.org/2000/svg">
<path fill-rule="evenodd" clip-rule="evenodd" d="M53.1808 13.175C54.7643 11.6675 57.2521 11.6675 58.8356 13.175C60.3961 14.737 60.3961 17.2679 58.8356 18.8299L55.5581 22.1084C62.9835 32.5572 60.884 46.9973 50.7905 54.8989C40.6971 62.8005 26.1752 61.3724 17.8143 51.6559C17.486 51.2345 17.5469 50.6294 17.9525 50.2818C18.3582 49.9342 18.9654 49.9667 19.3316 50.3557C21.356 52.7118 23.8575 54.6112 26.6707 55.9286L27.4268 54.1033C27.6381 53.5929 28.2231 53.3504 28.7335 53.5617C29.2439 53.773 29.4864 54.358 29.2751 54.8684L28.52 56.6907C30.6041 57.4458 32.7905 57.8812 35.005 57.9819V56.0086C35.005 55.4562 35.4528 55.0084 36.0051 55.0084C36.5575 55.0084 37.0053 55.4562 37.0053 56.0086V57.9839C39.2202 57.8875 41.4075 57.4548 43.4923 56.7007L42.7352 54.8734C42.5239 54.363 42.7663 53.778 43.2767 53.5667C43.7871 53.3554 44.3722 53.5979 44.5834 54.1083L45.3386 55.9256C47.344 54.9819 49.196 53.7418 50.8324 52.247L49.4432 50.8568C49.1832 50.6057 49.0789 50.2338 49.1704 49.8841C49.262 49.5345 49.5351 49.2614 49.8847 49.1698C50.2344 49.0783 50.6063 49.1826 50.8574 49.4426L52.2466 50.8328C53.7414 49.1964 54.9815 47.3444 55.9252 45.339L54.1029 44.5848C53.5925 44.3736 53.35 43.7885 53.5613 43.2781C53.7726 42.7677 54.3576 42.5253 54.868 42.7366L56.6953 43.4927C57.4511 41.4081 57.8854 39.2208 57.9835 37.0057H56.0082C55.4558 37.0057 55.008 36.5579 55.008 36.0055C55.008 35.4532 55.4558 35.0054 56.0082 35.0054H57.9835C57.8853 32.7899 57.451 30.6023 56.6953 28.5174L54.868 29.2745C54.5379 29.4112 54.1599 29.3613 53.8764 29.1437C53.593 28.9261 53.4471 28.5739 53.4939 28.2196C53.5406 27.8653 53.7727 27.5629 54.1029 27.4262L55.9252 26.6721C54.9815 24.6667 53.7414 22.8146 52.2466 21.1782L50.8574 22.5685C50.6063 22.8285 50.2344 22.9327 49.8847 22.8412C49.5351 22.7497 49.262 22.4766 49.1704 22.1269C49.0789 21.7772 49.1832 21.4054 49.4432 21.1542L50.8324 19.764C49.196 18.2692 47.344 17.0291 45.3386 16.0855L44.5834 17.9077C44.372 18.4177 43.7874 18.6599 43.2772 18.4488C42.7669 18.2378 42.5242 17.653 42.7352 17.1426L43.4923 15.3153C41.4078 14.5596 39.2204 14.1252 37.0053 14.0272V16.0025C37.0053 16.5548 36.5575 17.0026 36.0051 17.0026C35.4528 17.0026 35.005 16.5548 35.005 16.0025V14.0382C32.7919 14.1389 30.607 14.5753 28.525 15.3324L29.2751 17.1426C29.4864 17.653 29.2439 18.2381 28.7335 18.4493C28.2231 18.6606 27.6381 18.4181 27.4268 17.9077L26.6807 16.1075C24.6786 17.0512 22.8284 18.2879 21.1909 19.777L22.5671 21.1542C22.9461 21.5467 22.9407 22.1705 22.5549 22.5563C22.1691 22.9421 21.5453 22.9475 21.1528 22.5685L19.7676 21.1823C18.3252 22.7503 17.1205 24.5214 16.1921 26.4391C16.0429 26.771 15.7251 26.9957 15.3624 27.0258C14.9997 27.0558 14.6493 26.8865 14.4475 26.5836C14.2457 26.2807 14.2244 25.8921 14.3918 25.5689C14.9802 24.3597 15.6708 23.203 16.4561 22.1114L13.1746 18.8299C11.6142 17.2679 11.6142 14.737 13.1746 13.175C14.7582 11.6675 17.246 11.6675 18.8295 13.175L22.119 16.4645C25.0655 14.3733 28.4436 12.9696 32.0045 12.3569V8.00123C29.795 8.00123 28.0039 6.21009 28.0039 4.00061C28.0039 1.79114 29.795 0 32.0045 0H40.0057C42.2152 0 44.0064 1.79114 44.0064 4.00061C44.0064 6.21009 42.2152 8.00123 40.0057 8.00123V12.3419C43.5754 12.9432 46.9614 14.3489 49.9073 16.4525L53.1808 13.175ZM32.0045 2.00031C30.8998 2.00031 30.0042 2.89587 30.0042 4.00061C30.0042 5.10535 30.8998 6.00092 32.0045 6.00092H40.0057C41.1105 6.00092 42.006 5.10535 42.006 4.00061C42.006 2.89587 41.1105 2.00031 40.0057 2.00031H32.0045ZM38.0054 8.00123H34.0048V12.0959C34.6679 12.0388 35.331 12.0018 36.0051 12.0018C36.6792 12.0018 37.3453 12.0368 38.0054 12.0919V8.00123ZM14.5888 17.4157L17.6953 20.5231C18.5557 19.5025 19.499 18.5547 20.5157 17.6897L17.4153 14.5892C16.6261 13.8629 15.4046 13.8882 14.6462 14.6466C13.8878 15.405 13.8625 16.6265 14.5888 17.4157ZM54.595 14.5892L51.4945 17.6897C52.5135 18.5517 53.4589 19.4971 54.3209 20.5161L57.4214 17.4157C58.1477 16.6265 58.1224 15.405 57.364 14.6466C56.6057 13.8882 55.3841 13.8629 54.595 14.5892ZM11.002 37.0057C10.4496 37.0057 10.0018 36.5579 10.0018 36.0056C10.0018 35.4532 10.4496 35.0054 11.002 35.0054H28.0046C28.557 35.0054 29.0047 35.4532 29.0047 36.0056C29.0047 36.5579 28.557 37.0057 28.0046 37.0057H11.002ZM25.0038 29.0044H8.00117C7.4488 29.0044 7.00102 29.4522 7.00102 30.0046C7.00102 30.557 7.4488 31.0047 8.00117 31.0047H25.0038C25.5562 31.0047 26.0039 30.557 26.0039 30.0046C26.0039 29.4522 25.5562 29.0044 25.0038 29.0044ZM25.0038 41.0063C25.5562 41.0063 26.0039 41.4541 26.0039 42.0064C26.0039 42.5588 25.5562 43.0066 25.0038 43.0066H8.00117C7.4488 43.0066 7.00102 42.5588 7.00102 42.0064C7.00102 41.4541 7.4488 41.0063 8.00117 41.0063H25.0038ZM1.00015 31.0047H4.00061C4.55298 31.0047 5.00077 30.557 5.00077 30.0046C5.00077 29.4522 4.55298 29.0044 4.00061 29.0044H1.00015C0.447784 29.0044 0 29.4522 0 30.0046C0 30.557 0.447784 31.0047 1.00015 31.0047ZM3.00081 36.0056C3.00081 35.4532 3.44859 35.0054 4.00096 35.0054H7.00142C7.55379 35.0054 8.00157 35.4532 8.00157 36.0056C8.00157 36.5579 7.55379 37.0057 7.00142 37.0057H4.00096C3.44859 37.0057 3.00081 36.5579 3.00081 36.0056ZM5.00077 42.0064C5.00077 41.4541 4.55298 41.0063 4.00061 41.0063H1.00015C0.447784 41.0063 0 41.4541 0 42.0064C0 42.5588 0.447784 43.0066 1.00015 43.0066H4.00061C4.55298 43.0066 5.00077 42.5588 5.00077 42.0064ZM28.0046 46.0071C28.557 46.0071 29.0047 46.4548 29.0047 47.0072C29.0047 47.5596 28.557 48.0074 28.0046 48.0074H11.002C10.4496 48.0074 10.0018 47.5596 10.0018 47.0072C10.0018 46.4548 10.4496 46.0071 11.002 46.0071H28.0046ZM7.00142 46.0071H4.00096C3.44859 46.0071 3.00081 46.4548 3.00081 47.0072C3.00081 47.5596 3.44859 48.0074 4.00096 48.0074H7.00142C7.55379 48.0074 8.00157 47.5596 8.00157 47.0072C8.00157 46.4548 7.55379 46.0071 7.00142 46.0071ZM35.0051 21.0033C35.0051 20.4509 35.4529 20.0031 36.0052 20.0031C36.5576 20.0031 37.0054 20.4509 37.0054 21.0033V32.147C38.956 32.6506 40.2278 34.5261 39.974 36.5246C39.7201 38.5232 38.0198 40.0211 36.0052 40.0211C33.9907 40.0211 32.2904 38.5232 32.0365 36.5246C31.7827 34.5261 33.0545 32.6506 35.0051 32.147V21.0033ZM36.0052 38.0059C37.11 38.0059 38.0055 37.1103 38.0055 36.0056C38.0055 34.9008 37.11 34.0052 36.0052 34.0052C34.9005 34.0052 34.0049 34.9008 34.0049 36.0056C34.0049 37.1103 34.9005 38.0059 36.0052 38.0059Z" fill="url(#paint0_linear)"/>
<defs>
<linearGradient id="paint0_linear" x1="3.08934e-08" y1="2.79009e-08" x2="67.2889" y2="11.4706" gradientUnits="userSpaceOnUse">
<stop stop-color="#1E6AE4"/>
<stop offset="1" stop-color="#4284EE"/>
</linearGradient>
</defs>
</svg>
